<svg width="194" height="153" viewBox="0 0 194 153" fill="none" xmlns="http://www.w3.org/2000/svg">
<path d="M178.096 27.2552C214.969 61.9075 239.148 111.409 239.531 112.163C239.394 111.936 237.261 108.671 237.261 108.671C219.756 80.0318 202.838 69.077 202.838 69.077C223.875 89.5069 226.543 108.037 226.445 116.651C226.407 119.876 226.545 122.502 226.545 122.502C226.425 122.592 224.257 119.877 223.397 118.899C196.348 88.1168 178.767 36.4577 178.767 36.4577C178.173 53.459 198.773 92.1644 210.676 113.041C189.5 78.6837 174.036 67.0739 174.036 67.0739C195.77 92.8385 207.729 118.324 211.667 127.554C212.661 129.878 213.72 131.966 213.72 131.966C213.503 132.125 211.309 129.555 210.295 128.567C192.665 111.359 158.648 61.9523 158.648 61.9523C163.778 75.5457 178.93 100.077 190.293 117.614C169.305 89.1559 150.428 76.7348 150.428 76.7348C183.911 108.228 192.654 138.594 192.654 138.594C170.352 104.669 158.144 101.08 158.144 101.08C172.679 111.209 182.022 145.478 182.022 145.478C152.122 113.281 125.278 56.535 125.278 56.535C128.076 72.6576 146.366 104.685 160.367 127.451C140.089 100.371 124.428 95.918 124.428 95.918C152.85 117.583 169.699 157.47 169.699 157.47C146.516 124.195 129.186 112.749 129.186 112.749C140.536 126.618 151.358 158.413 154.895 169.435C155.668 171.853 156.662 174.058 156.662 174.058C156.492 174.183 154.316 171.536 153.384 170.55C132.532 148.512 100.436 92.2992 100.436 92.2992C99.1434 105.117 135.196 162.889 144.31 177.252C145.623 179.322 146.933 181.242 146.933 181.242C146.893 181.272 144.782 178.508 143.973 177.501C127.408 156.968 110.146 133.361 110.146 133.361C110.581 140.077 140.751 185.797 140.737 185.807L137.983 181.913C99.4482 125.701 79.3118 112.737 79.3118 112.737C102.53 137.192 122.577 177.026 128.347 189.023C129.436 191.283 130.567 193.311 130.567 193.311C130.128 193.634 127.765 191.215 126.594 190.316C110.028 177.587 88.3538 136.097 88.3538 136.097C90.1965 149.773 101.053 168.307 109.95 181.61C61.7995 115.322 42.115 96.5735 42.115 96.5735C62.3806 118.337 102.787 185.354 112.119 200.996C112.67 201.917 112.612 201.82 112.119 200.996L112.004 201.081C96.6864 178.105 61.9699 142 61.9699 142C74.8237 159.422 97.3127 195.805 104.121 206.897C105.402 208.984 106.684 210.932 106.684 210.932C105.286 209.986 103.96 208.647 102.881 207.812C75.1877 184.384 47.8052 131.131 47.8052 131.131C51.8701 158.138 83.5774 203.437 92.3648 215.57C93.2257 216.761 93.0413 216.505 92.3648 215.57C92.3648 215.57 96.294 219.797 91.4509 216.245C75.3597 204.762 46.7743 153.211 46.7743 153.211C47.4554 166.822 75.5112 210.007 83.5648 222.063C84.909 224.072 86.1941 226.049 86.1941 226.049C86.0439 226.16 83.8126 223.479 82.9246 222.535C48.575 186.053 30.1212 131.19 30.1212 131.19C25.2314 154.179 77.3902 232.538 77.3902 232.538L102.854 267.05L275.86 139.403L247.569 101.059C195.782 30.8142 178.096 27.2552 178.096 27.2552Z" fill="white"/>
</svg>
