<svg width="214" height="216" viewBox="0 0 214 216" fill="none" xmlns="http://www.w3.org/2000/svg">
<g clip-path="url(#clip0_228_777)">
<path d="M164.908 166.077C152.787 215.204 121.499 260.549 121.03 261.252C121.161 261.021 122.961 257.561 122.961 257.561C139.338 228.263 140.59 208.147 140.59 208.147C133.099 236.498 118.258 247.91 110.703 252.048C107.873 253.596 105.652 255.004 105.652 255.004C105.515 254.943 106.818 251.722 107.248 250.494C120.814 211.826 157.216 171.174 157.216 171.174C142.108 178.993 118.475 215.924 106.117 236.535C125.677 201.232 128.214 182.062 128.214 182.062C116.416 213.638 100.068 236.557 93.954 244.514C92.4154 246.52 91.1156 248.466 91.1156 248.466C90.8706 248.356 92.0344 245.184 92.3984 243.815C98.751 220.012 125.132 166.14 125.132 166.14C115.801 177.276 101.849 202.51 92.137 221.012C106.649 188.767 108.218 166.224 108.218 166.224C97.188 210.848 75.0092 233.357 75.0092 233.357C93.6418 197.286 90.7835 184.886 90.7835 184.886C89.0833 202.52 63.7968 227.466 63.7968 227.466C77.1969 185.62 113.492 134.4 113.492 134.4C100.812 144.744 81.8672 176.389 68.8905 199.753C82.5487 168.802 78.751 152.97 78.751 152.97C73.8053 188.364 47.3031 222.606 47.3031 222.606C64.9367 186.085 66.4155 165.369 66.4155 165.369C59.8932 182.062 37.4882 207.083 29.6159 215.57C27.8877 217.429 26.4539 219.377 26.4539 219.377C26.2611 219.29 27.5012 216.096 27.9034 214.8C36.8869 185.821 70.1412 130.286 70.1412 130.286C58.3363 135.444 25.6626 195.192 17.6136 210.178C16.4536 212.337 15.4224 214.421 15.4224 214.421C15.3767 214.4 16.7507 211.205 17.2315 210.006C27.004 185.501 39.1149 158.881 39.1149 158.881C33.4749 162.554 8.42151 211.266 8.40511 211.258L10.4493 206.949C40.5459 145.802 41.9712 121.896 41.9712 121.896C32.0413 154.122 7.15424 191.126 -0.47231 202.037C-1.90848 204.094 -3.12105 206.074 -3.12105 206.074C-3.61795 205.85 -2.66852 202.604 -2.45924 201.143C0.512545 180.464 26.045 141.231 26.045 141.231C15.0297 149.542 4.19917 168.092 -3.03208 182.369C31.1311 107.901 37.8198 81.5522 37.8198 81.5522C28.7889 109.885 -9.80737 177.962 -18.8642 193.764C-19.397 194.696 -19.3414 194.598 -18.8642 193.764L-18.9948 193.706C-6.48119 169.09 7.96352 121.13 7.96352 121.13C-0.917501 140.875 -21.6002 178.315 -27.9294 189.687C-29.12 191.827 -30.1893 193.899 -30.1893 193.899C-30.0496 192.217 -29.5328 190.404 -29.3347 189.055C-22.4943 153.432 10.4913 103.456 10.4913 103.456C-11.0532 120.241 -34.9861 170.086 -41.2523 183.694C-41.868 185.028 -41.7356 184.742 -41.2523 183.694C-41.2523 183.694 -43.0099 189.191 -42.2881 183.228C-40.1703 163.574 -9.25802 113.384 -9.25802 113.384C-20.786 120.651 -44.6675 166.277 -51.2259 179.208C-52.3175 181.364 -53.4105 183.454 -53.4105 183.454C-53.5807 183.377 -52.3383 180.118 -51.9514 178.881C-36.9977 131.056 1.7695 88.0721 1.7695 88.0721C-20.6639 95.0825 -63.3826 178.962 -63.3826 178.962L-80.9759 218.077L115.102 306.271L134.65 262.813C170.478 183.236 164.908 166.077 164.908 166.077Z" fill="white"/>
<path d="M146.714 -1.33118C146.855 -1.19101 147.697 -0.805563 148.61 -0.455153C149.699 -0.0346613 150.506 0.561035 150.998 1.33194L151.7 2.45325L150.26 2.20796C148.997 1.99772 148.786 2.0678 148.786 2.59341C148.786 2.94382 149.032 3.46944 149.348 3.81985C149.804 4.31042 150.085 4.34546 151.138 4.03009C152.297 3.67968 152.437 3.71472 153.21 4.66083C153.666 5.25653 154.438 6.20263 154.93 6.83337C155.421 7.42907 156.51 9.2512 157.387 10.8631C159.459 14.7526 159.845 14.8227 159.564 11.2135C159.318 8.02477 158.651 6.16759 157.387 4.9762C156.369 4.06513 156.264 3.4344 157.072 3.4344C158.055 3.4344 157.387 2.55837 155.737 1.78747C154.684 1.26186 154.052 0.73624 153.912 0.140543C153.806 -0.314989 153.49 -0.770522 153.21 -0.875645C152.402 -1.19101 146.469 -1.57646 146.714 -1.33118Z" fill="white"/>
<path d="M211.631 10.4422C211.631 10.8277 211.771 11.143 211.911 11.143C212.122 11.143 213.386 17.8709 213.386 19.0974C213.386 19.3076 212.895 19.658 212.298 19.9033C211.385 20.2887 211.28 20.499 211.455 21.2699C211.771 22.5314 211.806 22.5314 212.965 21.6904C213.562 21.2699 214.158 20.9545 214.334 20.9896C214.72 20.9896 216.792 23.8629 217.529 25.3697C217.81 26.0355 218.196 26.5611 218.371 26.5611C218.512 26.5611 218.652 27.0166 218.652 27.5773C218.652 28.9789 219.284 29.2943 219.565 28.0678C219.67 27.5422 219.846 26.8414 219.916 26.526C219.986 26.2107 219.916 24.8791 219.741 23.5476C219.46 21.5853 219.214 20.9896 218.442 20.3588C217.318 19.4828 217.459 18.782 219.074 17.8008C220.197 17.1351 220.197 17.1 219.355 17.0299C218.863 17.0299 218.196 17.0299 217.81 17.065C216.721 17.1351 216.195 16.3992 216.195 14.7873C216.195 13.5959 215.949 13.0002 215.106 12.0191C214.123 10.9328 212.438 9.74141 211.806 9.74141C211.701 9.74141 211.631 10.0568 211.631 10.4422Z" fill="white"/>
<path d="M83.554 17.5201C83.6594 17.7654 84.8882 18.7816 86.3276 19.7277C87.7671 20.7089 89.4523 22.0054 90.1194 22.6011C91.2779 23.6873 91.2779 23.6873 90.5407 24.0728C90.1194 24.3181 89.5225 24.4582 89.1714 24.3882C88.7852 24.3181 88.5746 24.5283 88.5746 24.9839C88.5746 25.7898 89.5576 26.0701 90.646 25.5796C91.0322 25.3693 92.1557 25.124 93.1036 25.0189C94.0515 24.9138 95.3154 24.4933 95.9123 24.1078C96.9656 23.4421 96.9656 23.407 96.2283 23.1968C95.7719 23.0566 95.4208 22.8464 95.4208 22.7412C95.4208 22.3207 96.9304 21.0593 98.2295 20.4285C99.9498 19.5875 101.038 18.5013 101.038 17.6953C101.038 16.9945 101.038 16.9945 100.266 17.6953C99.8094 18.0808 98.4401 18.9568 97.1762 19.6576C95.9123 20.3234 94.5782 21.2345 94.2271 21.6199C93.3494 22.566 93.0334 22.531 91.5939 21.3046C90.9269 20.7439 89.3821 19.938 88.1533 19.5175C86.9596 19.132 85.3797 18.4312 84.6775 17.9406C83.9753 17.45 83.4838 17.2748 83.554 17.5201Z" fill="white"/>
<path d="M170.553 28.7334C170.588 29.1188 171.712 32.3776 172.414 34.0947C172.976 35.4613 173.362 37.1783 173.467 39.0004C173.573 40.5422 173.783 42.7848 173.924 43.9412C174.205 46.4291 174.029 46.6393 171.22 47.0598C169.886 47.2701 169.64 47.4102 169.675 48.041C169.746 49.1973 170.694 49.5828 172.028 49.0221C172.66 48.7768 173.678 48.4615 174.31 48.3914C175.328 48.2162 175.504 48.3563 176.451 50.0383C177.048 51.0545 177.61 52.6664 177.715 53.6826C178.031 56.1705 178.347 56.591 179.33 55.8901C180.489 55.0842 181.648 53.192 181.893 51.6852C182.069 50.5639 181.964 50.1785 181.016 49.1623C180.454 48.4965 180.033 47.7256 180.138 47.4803C180.313 46.9897 182.56 46.1838 183.754 46.1838C184.175 46.1488 184 45.9735 183.192 45.5881C182.525 45.3078 181.612 45.0625 181.156 45.0975C179.014 45.2026 178.066 43.2404 178.418 39.6311C178.628 37.5287 178.593 37.2483 177.54 35.5664C176.311 33.534 171.712 28.6633 171.01 28.6633C170.764 28.6633 170.553 28.6983 170.553 28.7334Z" fill="white"/>
<path d="M127.966 34.7605C125.895 35.3212 125.403 35.7767 127.018 35.6015C128.072 35.5314 128.247 35.6015 128.352 36.2673C128.458 36.9331 128.247 37.0732 127.018 37.2835C124.842 37.6339 125.789 38.0894 128.914 38.1946L131.688 38.2997L132.285 40.3671C132.881 42.6097 133.197 42.5747 134.216 40.1218C135.023 38.1595 134.918 37.1433 133.829 36.863C133.197 36.6878 133.057 36.5476 133.373 36.3374C133.654 36.1622 133.373 35.987 132.53 35.8468C131.442 35.6366 131.231 35.4614 131.407 34.9357C131.582 34.3751 131.442 34.27 130.635 34.305C130.108 34.305 128.914 34.5153 127.966 34.7605Z" fill="white"/>
<path d="M29.4163 46.534C29.9078 46.9194 31.8037 47.9707 33.6293 48.8817C37.4562 50.7039 38.1935 51.2645 38.1935 52.3157C38.1935 52.7362 38.7201 53.5772 39.4223 54.208C40.0893 54.8037 40.6511 55.4694 40.6511 55.6797C40.6511 55.8549 40.0542 56.2754 39.3521 56.5557C36.4731 57.677 36.6838 57.5018 37.4913 58.3778C38.4392 59.359 39.9138 59.359 41.0022 58.3428C41.4586 57.9223 42.6523 57.1864 43.6353 56.6959C44.8641 56.0651 45.7418 55.2592 46.5493 54.0678C47.2164 53.0866 48.0239 52.2106 48.4101 52.0705C49.4985 51.65 49.1825 51.4748 47.4973 51.5799C46.5493 51.6149 45.9174 51.5098 45.9174 51.2996C45.9174 51.0893 46.3738 50.0731 46.9355 49.0569C48.0239 47.1647 47.9888 46.9895 46.7249 47.6903C45.9174 48.1459 43.8109 50.844 43.8109 51.4397C43.8109 52.4209 42.7225 51.4397 40.2649 48.216C39.0361 46.6391 37.4562 46.1836 32.5761 45.9733L28.5386 45.7981L29.4163 46.534Z" fill="white"/>
<path d="M231.081 58.5887C230.975 58.869 230.063 59.71 229.08 60.4809C228.061 61.2168 226.306 62.7235 225.147 63.8098C223.989 64.9311 222.9 65.8071 222.725 65.8071C222.549 65.8071 221.742 65.4217 220.899 64.9311C220.057 64.4405 217.915 63.7397 216.054 63.3893C213.246 62.8286 211.701 62.303 209.7 61.3219C209.524 61.2168 209.629 61.462 209.98 61.8475C210.332 62.233 212.122 63.2491 213.983 64.0551C215.844 64.861 218.126 66.0875 219.109 66.7883C220.724 67.9446 220.794 68.0498 220.197 68.5053C219.811 68.7856 219.144 69.101 218.652 69.2061C217.564 69.4864 217.178 70.012 217.669 70.6077C218.231 71.2735 219.846 71.1684 220.548 70.3975C220.864 70.0471 221.847 69.6616 222.725 69.5215C224.199 69.3463 227.781 67.384 227.781 66.7883C227.781 66.6481 227.394 66.4379 226.903 66.2977C226.411 66.1926 226.025 65.9123 226.025 65.737C226.025 65.3516 227.956 63.4243 230.519 61.2168C231.572 60.3407 231.994 59.71 231.994 59.0442C231.994 58.028 231.397 57.7477 231.081 58.5887Z" fill="white"/>
<path d="M77.0938 65.5616C74.4607 66.3676 72.1786 67.1385 72.0382 67.2786C71.8977 67.4538 73.4425 67.5589 75.5139 67.5589C78.8844 67.5589 79.3057 67.629 80.2185 68.3999C80.7451 68.8204 81.5877 69.4161 82.0441 69.6264C83.0974 70.187 82.7112 70.5374 80.3238 71.1682C78.6035 71.5887 78.3928 71.7639 78.4982 72.4647C78.7439 74.6372 80.9207 75.338 82.7814 73.9014C84.1507 72.8151 85.8008 72.2895 86.1167 72.8151C86.2221 72.9903 86.6083 73.1655 86.9594 73.1655C87.3104 73.1655 87.8722 73.4809 88.2233 73.8663C88.5744 74.2518 90.1191 75.303 91.6639 76.179C93.1736 77.0551 95.1748 78.4917 96.0876 79.3678C98.6154 81.8557 102.302 84.729 103.144 84.9042C103.812 85.0444 103.882 84.9393 103.706 84.0983C103.32 82.4163 100.406 76.8448 98.7559 74.6022C97.6675 73.1305 96.7196 72.2544 95.8419 71.904C95.1397 71.5887 93.8758 71.028 93.0332 70.6426C91.5937 69.9768 91.5586 69.9067 92.1203 69.276C92.4363 68.8905 93.0332 68.6102 93.3842 68.6102C93.946 68.6102 93.9109 68.47 93.0332 67.7341C92.1554 66.9983 91.6288 66.8581 89.8383 66.8581C87.3807 66.8581 85.9763 66.2624 85.239 64.9659C84.572 63.6694 82.9219 63.7745 77.0938 65.5616Z" fill="white"/>
<path d="M127.58 66.9282C128.001 68.6452 128.072 73.0954 127.756 74.462C127.72 74.532 127.159 74.5671 126.457 74.5671C125.474 74.5671 125.228 74.6722 125.333 75.1628C125.438 75.6884 125.754 75.7585 126.948 75.6884C128.352 75.5482 128.458 75.6183 128.949 76.8097C129.23 77.4755 129.476 78.5267 129.476 79.1224C129.476 80.1036 129.546 80.1736 130.178 79.8232C130.564 79.613 131.126 78.9823 131.442 78.3866C131.934 77.4054 131.934 77.2302 131.442 76.4943C130.705 75.373 130.705 75.338 132.039 74.9876L133.162 74.6722L131.828 74.2517L130.494 73.7962L130.599 71.4134C130.705 69.1357 130.634 68.9255 129.3 66.9982C127.369 64.195 126.948 64.1599 127.58 66.9282Z" fill="white"/>
<path d="M177.364 79.0174C177.083 80.0686 176.346 81.4703 174.591 84.2035C173.959 85.1496 173.327 86.341 173.186 86.7615C173.011 87.4272 172.765 87.5324 172.203 87.3922C170.027 86.7615 169.5 86.7615 169.5 87.2871C169.5 87.5674 169.395 88.058 169.289 88.3383C169.149 88.7237 169.5 88.899 170.729 89.0742L172.309 89.3194L172.098 91.6672C171.993 92.9637 171.747 94.5756 171.571 95.2764C171.396 95.9772 171.326 96.7832 171.431 97.0635C171.536 97.3438 171.326 97.8694 170.904 98.2199C170.062 98.9908 169.991 99.4463 170.764 99.4463C171.536 99.4463 174.556 96.2225 175.433 94.4705C175.96 93.3842 176.1 92.5783 175.925 91.6321C175.749 90.4057 175.784 90.3356 176.732 90.2656C177.294 90.2656 178.102 90.2656 178.558 90.3006C179.33 90.3707 179.33 90.3356 178.804 89.5297C178.488 89.0391 177.926 88.5836 177.575 88.4785C176.557 88.2332 176.697 87.0418 177.926 85.6752C179.295 84.0983 179.541 82.8018 178.839 80.419C178.172 78.1063 177.68 77.6508 177.364 79.0174Z" fill="white"/>
<path d="M135.866 94.2951C135.655 94.5404 135.374 95.2412 135.269 95.872C135.164 96.5027 134.777 97.624 134.391 98.3249C134.005 99.0257 133.689 100.042 133.689 100.567C133.689 101.479 133.057 102.425 130.529 105.228C129.406 106.489 126.667 111.57 126.667 112.376C126.667 113.217 125.79 113.042 123.191 111.711C120.418 110.344 120.277 110.309 115.011 109.958C109.253 109.608 106.48 109.047 103.776 107.681C100.23 105.894 102.583 108.241 106.304 110.204C106.796 110.449 108.165 110.659 109.324 110.659C110.903 110.659 112.062 110.905 113.537 111.57C120.769 114.794 122.454 115.6 122.454 115.88C122.454 116.581 121.015 117.317 119.189 117.527C118.101 117.667 117.188 117.878 117.188 118.018C117.188 118.123 117.539 118.579 117.995 118.999C119.189 120.155 120.909 120.05 126.667 118.579C130.67 117.527 131.969 117.072 132.706 116.336C133.865 115.145 133.724 113.568 132.425 113.252C131.863 113.112 131.582 112.797 131.582 112.271C131.582 111.045 133.127 108.136 134.918 105.929C135.866 104.807 136.919 103.09 137.27 102.179C138.639 98.5001 137.551 92.2628 135.866 94.2951Z" fill="white"/>
<path d="M208.822 105.018L207.593 105.228L208.997 105.649C209.77 105.859 211.069 106.139 211.911 106.279L213.421 106.525L213.175 108.137C213.07 109.048 212.859 109.889 212.719 110.064C212.473 110.274 208.576 109.678 206.47 109.048C205.803 108.872 205.662 108.977 205.662 109.573C205.662 109.994 205.873 110.309 206.189 110.309C206.47 110.309 207.031 110.624 207.418 111.01C207.804 111.395 208.892 111.956 209.84 112.271C210.823 112.587 212.017 113.217 212.508 113.673C213 114.129 214.51 114.829 215.844 115.25C218.547 116.056 218.723 116.371 217.95 119.069C217.74 119.735 217.494 121.242 217.388 122.398C217.283 123.52 217.037 124.781 216.827 125.131C216.581 125.587 216.581 125.902 216.862 126.183C217.353 126.673 220.654 124.396 222.585 122.258C223.954 120.716 225.674 117.633 225.674 116.757C225.674 116.511 224.831 115.74 223.848 115.005C221.953 113.673 221.988 112.972 223.884 113.988C224.48 114.269 224.972 114.444 224.972 114.339C224.972 113.848 222.093 111.29 221.145 110.975C219.635 110.449 219.6 109.013 221.11 108.487C222.023 108.207 222.128 108.031 221.742 107.611C221.145 106.875 220.092 106.525 215.598 105.543C211.56 104.667 210.964 104.632 208.822 105.018Z" fill="white"/>
<path d="M57.4682 112.166C56.1692 112.587 54.7648 113.217 54.3084 113.568L53.4658 114.198L54.6946 113.953C57.0118 113.533 57.2576 113.603 57.5384 114.619C57.8193 115.705 57.4331 116.021 54.9755 116.721C54.2031 116.967 53.536 117.282 53.536 117.492C53.4658 117.878 59.5045 118.018 61.611 117.668C63.0154 117.422 63.0856 117.457 63.4718 118.508C63.6825 119.104 64.174 120.401 64.5602 121.347C64.9113 122.328 65.2272 123.309 65.2272 123.554C65.2272 124.255 65.7539 124.01 66.3507 122.994C67.3689 121.277 68.071 118.298 67.8253 116.721C67.6146 115.32 67.5093 115.215 66.1401 114.899C65.3326 114.724 65.0517 114.584 65.5081 114.549C65.9294 114.514 66.2805 114.374 66.2805 114.198C66.2805 113.848 64.5953 113.463 63.0856 113.463C61.9972 113.463 61.6813 112.587 62.4888 111.781C63.1909 111.08 60.1014 111.325 57.4682 112.166Z" fill="white"/>
</g>
<defs>
<clipPath id="clip0_228_777">
<rect width="215" height="305" fill="white" transform="translate(17.1133) rotate(24.2178)"/>
</clipPath>
</defs>
</svg>
