<svg width="70" height="47" viewBox="0 0 70 47" fill="none" xmlns="http://www.w3.org/2000/svg">
<path d="M39.0385 41.7544V14.7369C39.0429 10.8297 40.7463 7.08364 43.7747 4.32083C46.8032 1.55801 50.9094 0.00408554 55.1923 1.90735e-05C55.9064 1.90735e-05 56.5912 0.258785 57.0961 0.719402C57.601 1.18002 57.8846 1.80475 57.8846 2.45616C57.8846 3.10757 57.601 3.7323 57.0961 4.19292C56.5912 4.65353 55.9064 4.9123 55.1923 4.9123C52.3361 4.9123 49.5969 5.94739 47.5773 7.78985C45.5577 9.63231 44.4231 12.1312 44.4231 14.7369V17.193H64.6154C66.0435 17.193 67.4131 17.7105 68.4229 18.6318C69.4327 19.553 70 20.8025 70 22.1053V41.7544C70 43.0572 69.4327 44.3067 68.4229 45.2279C67.4131 46.1491 66.0435 46.6667 64.6154 46.6667H44.4231C42.995 46.6667 41.6254 46.1491 40.6156 45.2279C39.6058 44.3067 39.0385 43.0572 39.0385 41.7544ZM5.38461 46.6667H25.5769C27.005 46.6667 28.3746 46.1491 29.3844 45.2279C30.3942 44.3067 30.9615 43.0572 30.9615 41.7544V22.1053C30.9615 20.8025 30.3942 19.553 29.3844 18.6318C28.3746 17.7105 27.005 17.193 25.5769 17.193H5.38461V14.7369C5.38461 12.1312 6.51923 9.63231 8.53886 7.78985C10.5585 5.94739 13.2977 4.9123 16.1538 4.9123C16.8679 4.9123 17.5527 4.65353 18.0576 4.19292C18.5625 3.7323 18.8462 3.10757 18.8462 2.45616C18.8462 1.80475 18.5625 1.18002 18.0576 0.719402C17.5527 0.258785 16.8679 1.90735e-05 16.1538 1.90735e-05C11.8709 0.00408554 7.76474 1.55801 4.73627 4.32083C1.7078 7.08364 0.00445557 10.8297 0 14.7369V41.7544C0 43.0572 0.567307 44.3067 1.57712 45.2279C2.58693 46.1491 3.95653 46.6667 5.38461 46.6667Z" fill="#001751"/>
</svg>
